<svg xmlns="http://www.w3.org/2000/svg" viewBox="0 0 100 100" width="100" height="100">
  <defs>
    <linearGradient id="grad1" x1="0%" y1="0%" x2="100%" y2="100%">
      <stop offset="0%" style="stop-color:#2E75B6;stop-opacity:1" />
      <stop offset="100%" style="stop-color:#1a4d7c;stop-opacity:1" />
    </linearGradient>
  </defs>

  <!-- Background circle -->
  <circle cx="50" cy="50" r="45" fill="url(#grad1)"/>

  <!-- Signal waves -->
  <path d="M30 50 Q40 35, 50 50 Q60 65, 70 50" stroke="white" stroke-width="3" fill="none" opacity="0.6"/>
  <path d="M25 50 Q37.5 30, 50 50 Q62.5 70, 75 50" stroke="white" stroke-width="2.5" fill="none" opacity="0.4"/>
  <path d="M20 50 Q35 25, 50 50 Q65 75, 80 50" stroke="white" stroke-width="2" fill="none" opacity="0.2"/>

  <!-- Center node -->
  <circle cx="50" cy="50" r="8" fill="white"/>

  <!-- Mesh nodes -->
  <circle cx="30" cy="35" r="4" fill="white" opacity="0.8"/>
  <circle cx="70" cy="35" r="4" fill="white" opacity="0.8"/>
  <circle cx="30" cy="65" r="4" fill="white" opacity="0.8"/>
  <circle cx="70" cy="65" r="4" fill="white" opacity="0.8"/>

  <!-- Connection lines -->
  <line x1="34" y1="38" x2="46" y2="46" stroke="white" stroke-width="1.5" opacity="0.6"/>
  <line x1="66" y1="38" x2="54" y2="46" stroke="white" stroke-width="1.5" opacity="0.6"/>
  <line x1="34" y1="62" x2="46" y2="54" stroke="white" stroke-width="1.5" opacity="0.6"/>
  <line x1="66" y1="62" x2="54" y2="54" stroke="white" stroke-width="1.5" opacity="0.6"/>
</svg>
